<svg width="371.493" height="375.573" viewBox="0 0 278.62 281.68" class="displayed_equation" xmlns="http://www.w3.org/2000/svg">
  <path d="M 268.945313 285.55 L 2524.882813 285.55 M 268.945313 511.135938 L 2524.882813 511.135938 M 268.945313 736.721875 L 2524.882813 736.721875 M 268.945313 962.307813 L 2524.882813 962.307813 M 268.945313 1187.89375 L 2524.882813 1187.89375 M 268.945313 1413.51875 L 2524.882813 1413.51875 M 268.945313 1639.104688 L 2524.882813 1639.104688 M 268.945313 1864.690625 L 2524.882813 1864.690625 M 268.945313 2090.276563 L 2524.882813 2090.276563 M 268.945313 2315.8625 L 2524.882813 2315.8625 M 268.945313 2541.409375 L 2524.882813 2541.409375 M 268.945313 285.55 L 268.945313 2541.4875 M 494.53125 285.55 L 494.53125 2541.4875 M 720.117188 285.55 L 720.117188 2541.4875 M 945.742188 285.55 L 945.742188 2541.4875 M 1171.328125 285.55 L 1171.328125 2541.4875 M 1396.914063 285.55 L 1396.914063 2541.4875 M 1622.5 285.55 L 1622.5 2541.4875 M 1848.085938 285.55 L 1848.085938 2541.4875 M 2073.710938 285.55 L 2073.710938 2541.4875 M 2299.296875 285.55 L 2299.296875 2541.4875 M 2524.804688 285.55 L 2524.804688 2541.4875" transform="matrix(.1 0 0 -.1 0 281.68)" fill="none" stroke-width="3.985" stroke-linecap="round" stroke-linejoin="round" stroke="#dbdbdc" stroke-miterlimit="10" />
  <path d="M 268.945313 285.55 L 2524.882813 285.55 M 268.945313 1413.51875 L 2524.882813 1413.51875 M 268.945313 2541.409375 L 2524.882813 2541.409375 M 268.945313 285.55 L 268.945313 2541.4875 M 1396.914063 285.55 L 1396.914063 2541.4875 M 2524.804688 285.55 L 2524.804688 2541.4875" transform="matrix(.1 0 0 -.1 0 281.68)" fill="none" stroke-width="3.985" stroke-linecap="round" stroke-linejoin="round" stroke="#a5a5a6" stroke-miterlimit="10" />
  <path d="M 1396.914063 266.995313 L 1396.914063 304.104688" transform="matrix(.1 0 0 -.1 0 281.68)" fill="none" stroke-width="7.97" stroke-linecap="round" stroke-linejoin="round" stroke="#000" stroke-miterlimit="10" />
  <path d="M 141.550781 259.65625 L 141.730469 258.75 L 138.671875 258.75 L 137.984375 261.664063 L 138.117188 261.828125 C 138.273438 261.828125 138.328125 261.828125 138.617188 261.851563 C 140.15625 261.929688 141.027344 262.386719 141.027344 263.78125 C 141.027344 264.941406 140.324219 265.367188 139.53125 265.367188 C 138.820313 265.367188 138.449219 264.820313 138.003906 264.820313 C 137.726563 264.820313 137.558594 265.042969 137.558594 265.300781 C 137.558594 265.710938 137.984375 265.925781 138.839844 265.925781 C 140.617188 265.925781 141.84375 265.054688 141.84375 263.335938 C 141.84375 261.585938 140.46875 261.0625 139.152344 260.960938 L 138.628906 260.925781 L 138.929688 259.65625 L 141.550781 259.65625" />
  <path d="M 250.390625 1413.479688 L 287.5 1413.479688" transform="matrix(.1 0 0 -.1 0 281.68)" fill="none" stroke-width="7.97" stroke-linecap="round" stroke-linejoin="round" stroke="#000" stroke-miterlimit="10" />
  <path d="M 20.351563 137.65625 L 20.53125 136.753906 L 17.472656 136.753906 L 16.78125 139.664063 L 16.914063 139.828125 C 17.070313 139.828125 17.128906 139.828125 17.417969 139.851563 C 18.957031 139.933594 19.828125 140.386719 19.828125 141.78125 C 19.828125 142.941406 19.125 143.367188 18.332031 143.367188 C 17.617188 143.367188 17.25 142.820313 16.804688 142.820313 C 16.523438 142.820313 16.359375 143.042969 16.359375 143.300781 C 16.359375 143.714844 16.78125 143.925781 17.640625 143.925781 C 19.414063 143.925781 20.640625 143.054688 20.640625 141.335938 C 20.640625 139.585938 19.269531 139.0625 17.953125 138.960938 L 17.429688 138.925781 L 17.730469 137.65625 L 20.351563 137.65625" />
  <path d="M 268.945313 285.55 L 2474.921875 285.55" transform="matrix(.1 0 0 -.1 0 281.68)" fill="none" stroke-width="7.97" stroke-linecap="round" stroke-linejoin="round" stroke="#000" stroke-miterlimit="10" />
  <path d="M 251.355469 253.125 L 245.886719 251.0625 L 247.691406 253.125 L 245.886719 255.191406" />
  <path d="M 2513.554688 285.55 L 2458.867188 306.175 L 2476.914063 285.55 L 2458.867188 264.885938 Z M 2513.554688 285.55" transform="matrix(.1 0 0 -.1 0 281.68)" fill="none" stroke-width="7.97" stroke-linecap="round" stroke="#000" stroke-miterlimit="10" />
  <path d="M 260.113281 252.453125 L 260.082031 252.453125 L 259.945313 251.886719 C 259.789063 251.285156 259.578125 250.792969 259.3125 250.480469 L 259.144531 250.480469 L 257.59375 250.660156 L 257.59375 250.992188 C 257.59375 250.992188 257.761719 250.960938 257.9375 250.960938 C 258.675781 250.949219 258.863281 251.25 259.164063 252.1875 L 259.476563 253.203125 L 258.675781 254.375 C 258.242188 255 258.039063 255.007813 257.996094 255.007813 C 257.804688 255.007813 257.539063 254.867188 257.292969 254.867188 C 257.023438 254.867188 256.855469 255.109375 256.855469 255.332031 C 256.855469 255.613281 257.023438 255.878906 257.503906 255.878906 C 258.171875 255.878906 258.539063 255.355469 258.898438 254.773438 L 259.613281 253.617188 L 259.65625 253.617188 L 259.9375 254.742188 C 260.09375 255.46875 260.339844 255.890625 260.851563 255.890625 C 261.609375 255.890625 262.078125 255.132813 262.402344 254.640625 L 262.167969 254.460938 C 261.867188 254.867188 261.652344 255.085938 261.363281 255.085938 C 261.015625 255.085938 260.796875 254.675781 260.484375 253.648438 L 260.246094 252.890625 L 260.929688 251.808594 C 261.117188 251.496094 261.273438 251.339844 261.53125 251.339844 C 261.675781 251.339844 261.933594 251.453125 262.109375 251.453125 C 262.414063 251.453125 262.625 251.195313 262.625 250.925781 C 262.625 250.613281 262.492188 250.4375 262.066406 250.4375 C 261.40625 250.4375 260.964844 250.984375 260.660156 251.519531 L 260.113281 252.453125" />
  <path d="M 268.945313 285.55 L 268.945313 2491.4875" transform="matrix(.1 0 0 -.1 0 281.68)" fill="none" stroke-width="7.97" stroke-linecap="round" stroke-linejoin="round" stroke="#000" stroke-miterlimit="10" />
  <path d="M 26.894531 28.667969 L 24.832031 34.136719 L 26.894531 32.332031 L 28.957031 34.136719" />
  <path d="M 268.945313 2530.120313 L 248.320313 2475.432813 L 268.945313 2493.479688 L 289.570313 2475.432813 Z M 268.945313 2530.120313" transform="matrix(.1 0 0 -.1 0 281.68)" fill="none" stroke-width="7.97" stroke-linecap="round" stroke="#000" stroke-miterlimit="10" />
  <path d="M26.800781 17.554688C26.664063 16.660156 26.585938 16.304688 26.34375 15.878906L26.175781 15.878906 24.589844 16.003906 24.589844 16.328125C24.589844 16.328125 24.824219 16.304688 24.980469 16.304688 25.664063 16.304688 25.71875 16.851563 25.796875 17.351563L26.453125 21.28125C26.140625 21.761719 25.339844 22.820313 25.125 22.820313 24.882813 22.820313 24.757813 22.226563 24.335938 22.226563 24.078125 22.226563 23.898438 22.375 23.898438 22.707031 23.898438 23.121094 24.289063 23.433594 24.757813 23.433594 25.605469 23.433594 26.386719 22.171875 27.222656 21.011719 27.804688 20.210938 28.441406 19.25 29.042969 18.1875 29.398438 17.589844 29.53125 17.085938 29.53125 16.648438 29.53125 16.171875 29.242188 15.800781 28.832031 15.800781 28.507813 15.800781 28.339844 16.003906 28.339844 16.238281 28.339844 16.660156 28.886719 16.972656 28.886719 17.265625 28.886719 17.53125 28.785156 17.800781 28.519531 18.234375L27.234375 20.300781 27.167969 20.300781 27.070313 19.183594 26.800781 17.554688M22.421875 260.945313C22.421875 258.644531 21.417969 257.316406 19.976563 257.316406 18.359375 257.316406 17.5 258.789063 17.5 260.910156 17.5 262.882813 18.160156 264.601563 19.957031 264.601563 21.707031 264.601563 22.421875 262.851563 22.421875 260.945313zM21.339844 261.007813C21.339844 263.152344 20.835938 264.199219 19.957031 264.199219 19.0625 264.199219 18.570313 263.128906 18.570313 260.964844 18.570313 258.757813 19.0625 257.695313 19.945313 257.695313 20.859375 257.695313 21.339844 258.746094 21.339844 261.007813" />
  <path d="M 494.53125 962.307813 L 1129.609375 1385.70625" transform="matrix(.1 0 0 -.1 0 281.68)" fill="none" stroke-width="7.97" stroke-linecap="round" stroke-linejoin="round" stroke="#109e24" stroke-miterlimit="10" />
  <path d="M 116.183594 140.960938 L 110.472656 142.28125 L 113.128906 143 L 112.769531 145.726563" fill="#109e24" />
  <path d="M 1161.835938 1407.190625 L 1104.726563 1393.9875 L 1131.289063 1386.8 L 1127.695313 1359.534375 Z M 1161.835938 1407.190625" transform="matrix(.1 0 0 -.1 0 281.68)" fill="none" stroke-width="7.995" stroke-linecap="round" stroke="#109e24" stroke-miterlimit="10" />
  <path d="M78.640625 148.769531L77.054688 147.375 76.863281 147.597656 77.253906 148C77.421875 148.179688 77.535156 148.277344 77.535156 148.433594 77.535156 148.558594 77.421875 148.578125 77.253906 148.578125L63.699219 148.578125 63.699219 149.105469 77.253906 149.105469C77.421875 149.105469 77.535156 149.128906 77.535156 149.25 77.535156 149.40625 77.421875 149.507813 77.253906 149.683594L76.863281 150.085938 77.054688 150.308594 78.640625 148.914063 78.640625 148.769531M69.792969 158.78125L69.859375 158.457031C69.3125 158.445313 69.113281 158.320313 68.867188 157.789063L67.429688 154.785156 69.382813 152.777344C70.171875 151.964844 70.429688 151.808594 71.144531 151.785156L71.199219 151.449219 68.644531 151.449219 68.589844 151.785156C69.089844 151.785156 69.191406 151.863281 69.191406 152.03125 69.191406 152.175781 69 152.441406 68.734375 152.734375L67.238281 154.386719 67.203125 154.386719 66.804688 153.335938C66.578125 152.765625 66.367188 152.363281 66.367188 152.140625 66.367188 151.875 66.625 151.785156 67.039063 151.785156L67.160156 151.785156 67.226563 151.449219 64.25 151.449219 64.179688 151.785156C64.941406 151.785156 65.050781 151.953125 65.421875 152.734375L66.5 155.097656 64.113281 157.574219C63.433594 158.277344 63.222656 158.433594 62.640625 158.457031L62.585938 158.78125 65.039063 158.78125 65.109375 158.457031C64.550781 158.457031 64.4375 158.355469 64.4375 158.164063 64.4375 158 64.785156 157.617188 64.960938 157.429688L66.714844 155.53125 66.75 155.53125 66.949219 156.113281 67.4375 157.195313C67.617188 157.609375 67.683594 157.878906 67.683594 158.066406 67.683594 158.378906 67.429688 158.457031 66.96875 158.457031L66.859375 158.457031 66.792969 158.78125 69.792969 158.78125M79.34375 151.449219L76.898438 151.449219 76.832031 151.785156C77.367188 151.785156 77.492188 151.875 77.492188 152.039063 77.492188 152.1875 77.378906 152.378906 77.257813 152.519531L75.171875 155.109375 75.113281 155.109375 74.8125 154.183594 74.164063 152.554688C74.101563 152.386719 74.054688 152.230469 74.054688 152.085938 74.054688 151.929688 74.257813 151.785156 74.878906 151.785156L74.945313 151.449219 72.070313 151.449219 72 151.785156C72.558594 151.785156 72.828125 151.90625 73.398438 153.300781L74.355469 155.699219 74.023438 157.320313C73.820313 158.3125 73.652344 158.445313 72.660156 158.445313L72.605469 158.78125 75.882813 158.78125 75.941406 158.445313C75.015625 158.445313 74.8125 158.300781 75.023438 157.320313L75.371094 155.644531 77.578125 152.890625C78.316406 151.984375 78.605469 151.839844 79.277344 151.785156L79.34375 151.449219" fill="#109e24" />
  <path d="M 494.53125 962.307813 L 1121.328125 962.307813" transform="matrix(.1 0 0 -.1 0 281.68)" fill="none" stroke-width="7.97" stroke-linecap="round" stroke-linejoin="round" stroke="#55a4e0" stroke-miterlimit="10" />
  <path d="M 115.996094 185.449219 L 110.527344 183.382813 L 112.332031 185.449219 L 110.527344 187.511719" fill="#55a4e0" />
  <path d="M 1159.960938 962.307813 L 1105.273438 982.971875 L 1123.320313 962.307813 L 1105.273438 941.682813 Z M 1159.960938 962.307813" transform="matrix(.1 0 0 -.1 0 281.68)" fill="none" stroke-width="7.97" stroke-linecap="round" stroke="#55a4e0" stroke-miterlimit="10" />
  <path d="M83.839844 194.269531L83.839844 193.511719 80.917969 193.511719 80.917969 190.554688 80.113281 190.554688 80.113281 193.511719 77.191406 193.511719 77.191406 194.269531 80.113281 194.269531 80.113281 197.226563 80.917969 197.226563 80.917969 194.269531 83.839844 194.269531M85.558594 191.222656C85.9375 190.632813 86.351563 190.320313 87.019531 190.320313 87.710938 190.320313 88.160156 190.699219 88.160156 191.359375 88.160156 192.261719 87.367188 192.875 86.609375 192.875L86.398438 192.875 86.398438 193.296875 86.617188 193.296875C87.691406 193.296875 88.640625 193.957031 88.640625 194.949219 88.640625 196.042969 87.957031 196.367188 87.253906 196.367188 86.988281 196.367188 86.832031 196.320313 86.351563 196.078125 85.960938 195.875 85.871094 195.820313 85.695313 195.820313 85.402344 195.820313 85.257813 196.078125 85.257813 196.3125 85.257813 196.601563 85.503906 196.925781 86.507813 196.925781 88.136719 196.925781 89.554688 196.144531 89.554688 194.617188 89.554688 193.621094 88.804688 193.03125 87.914063 192.75L87.914063 192.71875C88.617188 192.273438 89.117188 191.859375 89.117188 191.089844 89.117188 190.242188 88.460938 189.59375 87.320313 189.59375 86.40625 189.59375 85.714844 190.109375 85.304688 191.078125L85.558594 191.222656" fill="#55a4e0" />
  <path d="M 1171.328125 962.307813 L 1171.328125 1352.229688" transform="matrix(.1 0 0 -.1 0 281.68)" fill="none" stroke-width="7.97" stroke-linecap="round" stroke-linejoin="round" stroke="#e14b3b" stroke-miterlimit="10" />
  <path d="M 117.132813 142.59375 L 115.066406 148.0625 L 117.132813 146.257813 L 119.195313 148.0625" fill="#e14b3b" />
  <path d="M 1171.328125 1390.8625 L 1150.664063 1336.175 L 1171.328125 1354.221875 L 1191.953125 1336.175 Z M 1171.328125 1390.8625" transform="matrix(.1 0 0 -.1 0 281.68)" fill="none" stroke-width="7.97" stroke-linecap="round" stroke="#e14b3b" stroke-miterlimit="10" />
  <path d="M128.640625 164.367188L128.640625 163.609375 125.71875 163.609375 125.71875 160.65625 124.914063 160.65625 124.914063 163.609375 121.992188 163.609375 121.992188 164.367188 124.914063 164.367188 124.914063 167.328125 125.71875 167.328125 125.71875 164.367188 128.640625 164.367188M134.476563 165.097656L134.152344 165.097656C133.898438 165.765625 133.753906 166 133.160156 166L131.609375 166 130.828125 166.03125 130.828125 165.976563 132.300781 164.582031C133.484375 163.386719 134.117188 162.617188 134.117188 161.625 134.117188 160.453125 133.238281 159.695313 131.976563 159.695313 130.894531 159.695313 130.136719 160.320313 129.789063 161.402344L130.058594 161.515625C130.472656 160.675781 130.964844 160.421875 131.6875 160.421875 132.546875 160.421875 133.082031 160.957031 133.082031 161.792969 133.082031 162.964844 132.523438 163.667969 131.421875 164.804688L129.722656 166.5 129.722656 166.878906 134.117188 166.878906 134.476563 165.097656" fill="#e14b3b" />
  <path d="M52.003906 185.449219C52.003906 184.039063 50.863281 182.898438 49.453125 182.898438 48.042969 182.898438 46.902344 184.039063 46.902344 185.449219 46.902344 186.859375 48.042969 188 49.453125 188 50.863281 188 52.003906 186.859375 52.003906 185.449219zM39.292969 197.578125L39.359375 197.257813C38.8125 197.246094 38.613281 197.121094 38.367188 196.585938L36.929688 193.585938 38.882813 191.578125C39.671875 190.761719 39.929688 190.605469 40.644531 190.585938L40.699219 190.25 38.144531 190.25 38.089844 190.585938C38.589844 190.585938 38.691406 190.664063 38.691406 190.828125 38.691406 190.976563 38.5 191.242188 38.234375 191.53125L36.738281 193.183594 36.703125 193.183594 36.304688 192.136719C36.078125 191.566406 35.867188 191.164063 35.867188 190.941406 35.867188 190.671875 36.125 190.585938 36.539063 190.585938L36.660156 190.585938 36.726563 190.25 33.75 190.25 33.679688 190.585938C34.441406 190.585938 34.550781 190.75 34.921875 191.53125L36 193.898438 33.613281 196.375C32.933594 197.078125 32.722656 197.234375 32.140625 197.257813L32.085938 197.578125 34.539063 197.578125 34.609375 197.257813C34.050781 197.257813 33.9375 197.15625 33.9375 196.964844 33.9375 196.796875 34.285156 196.417969 34.460938 196.230469L36.214844 194.332031 36.25 194.332031 36.449219 194.914063 36.9375 195.996094C37.117188 196.40625 37.183594 196.675781 37.183594 196.867188 37.183594 197.179688 36.929688 197.257813 36.46875 197.257813L36.359375 197.257813 36.292969 197.578125 39.292969 197.578125M42.878906 194.722656C42.878906 197.175781 44.050781 198.929688 45.847656 199.855469L46.027344 199.542969C44.398438 198.472656 43.796875 196.964844 43.796875 194.722656 43.796875 192.503906 44.398438 191.007813 46.027344 189.925781L45.847656 189.636719C44.050781 190.550781 42.878906 192.289063 42.878906 194.722656M51.152344 197.578125L51.152344 197.265625C50.125 197.265625 49.714844 197.066406 49.714844 196.519531L49.714844 190.453125 49.390625 190.453125 47.226563 191.0625 47.226563 191.433594C47.570313 191.320313 48.140625 191.253906 48.363281 191.253906 48.640625 191.253906 48.730469 191.410156 48.730469 191.800781L48.730469 196.519531C48.730469 197.078125 48.339844 197.265625 47.292969 197.265625L47.292969 197.578125 51.152344 197.578125M52.824219 199.164063C53.273438 198.960938 54.210938 198.585938 54.210938 197.324219 54.210938 196.710938 53.90625 196.339844 53.351563 196.339844 52.902344 196.339844 52.65625 196.640625 52.65625 197 52.65625 197.324219 52.835938 197.601563 53.273438 197.601563 53.394531 197.601563 53.496094 197.578125 53.617188 197.535156 53.617188 198.4375 53.105469 198.707031 52.691406 198.882813L52.824219 199.164063M57.558594 192.023438C57.9375 191.433594 58.351563 191.121094 59.019531 191.121094 59.710938 191.121094 60.160156 191.5 60.160156 192.15625 60.160156 193.0625 59.367188 193.675781 58.609375 193.675781L58.398438 193.675781 58.398438 194.097656 58.617188 194.097656C59.691406 194.097656 60.640625 194.757813 60.640625 195.75 60.640625 196.84375 59.957031 197.167969 59.253906 197.167969 58.988281 197.167969 58.832031 197.121094 58.351563 196.875 57.960938 196.675781 57.871094 196.621094 57.695313 196.621094 57.402344 196.621094 57.257813 196.875 57.257813 197.109375 57.257813 197.402344 57.503906 197.726563 58.507813 197.726563 60.136719 197.726563 61.554688 196.945313 61.554688 195.414063 61.554688 194.421875 60.804688 193.832031 59.914063 193.550781L59.914063 193.519531C60.617188 193.070313 61.117188 192.660156 61.117188 191.890625 61.117188 191.042969 60.460938 190.394531 59.320313 190.394531 58.40625 190.394531 57.714844 190.90625 57.304688 191.878906L57.558594 192.023438M65.691406 194.722656C65.691406 192.289063 64.519531 190.550781 62.726563 189.636719L62.546875 189.925781C64.175781 191.007813 64.777344 192.503906 64.777344 194.722656 64.777344 196.964844 64.175781 198.472656 62.546875 199.542969L62.726563 199.855469C64.519531 198.929688 65.691406 197.175781 65.691406 194.722656M119.683594 140.328125C119.683594 138.921875 118.539063 137.777344 117.132813 137.777344 115.722656 137.777344 114.582031 138.921875 114.582031 140.328125 114.582031 141.738281 115.722656 142.882813 117.132813 142.882813 118.539063 142.882813 119.683594 141.738281 119.683594 140.328125zM108.34375 126.648438L105.898438 126.648438 105.832031 126.984375C106.367188 126.984375 106.492188 127.074219 106.492188 127.242188 106.492188 127.386719 106.378906 127.578125 106.257813 127.722656L104.171875 130.308594 104.113281 130.308594 103.8125 129.382813 103.164063 127.753906C103.101563 127.589844 103.054688 127.433594 103.054688 127.285156 103.054688 127.128906 103.257813 126.984375 103.878906 126.984375L103.945313 126.648438 101.070313 126.648438 101.003906 126.984375C101.558594 126.984375 101.828125 127.109375 102.398438 128.503906L103.355469 130.898438 103.023438 132.519531C102.820313 133.511719 102.652344 133.644531 101.660156 133.644531L101.605469 133.980469 104.882813 133.980469 104.941406 133.644531C104.015625 133.644531 103.8125 133.5 104.023438 132.519531L104.371094 130.847656 106.578125 128.089844C107.316406 127.1875 107.605469 127.039063 108.277344 126.984375L108.34375 126.648438M110.480469 131.023438C110.480469 133.476563 111.652344 135.226563 113.445313 136.15625L113.628906 135.84375C111.996094 134.773438 111.394531 133.265625 111.394531 131.023438 111.394531 128.804688 111.996094 127.308594 113.628906 126.226563L113.445313 125.9375C111.652344 126.851563 110.480469 128.589844 110.480469 131.023438M119.367188 132.21875L119.367188 131.445313 118.226563 131.445313 118.226563 126.785156 117.546875 126.785156 114.144531 131.515625 114.144531 132.21875 117.234375 132.21875 117.234375 133.980469 118.226563 133.980469 118.226563 132.21875zM117.234375 131.445313L114.757813 131.445313 114.757813 131.402344 117.191406 128 117.234375 128 117.234375 131.445313M120.425781 135.5625C120.871094 135.363281 121.808594 134.984375 121.808594 133.722656 121.808594 133.109375 121.507813 132.742188 120.949219 132.742188 120.503906 132.742188 120.257813 133.042969 120.257813 133.398438 120.257813 133.722656 120.4375 134.003906 120.871094 134.003906 120.996094 134.003906 121.09375 133.980469 121.21875 133.933594 121.21875 134.839844 120.703125 135.105469 120.292969 135.285156L120.425781 135.5625M128.851563 127.855469L129.03125 126.953125 125.972656 126.953125 125.28125 129.863281 125.414063 130.03125C125.570313 130.03125 125.628906 130.03125 125.917969 130.054688 127.457031 130.132813 128.328125 130.589844 128.328125 131.984375 128.328125 133.140625 127.625 133.566406 126.832031 133.566406 126.117188 133.566406 125.75 133.019531 125.304688 133.019531 125.023438 133.019531 124.859375 133.242188 124.859375 133.5 124.859375 133.914063 125.28125 134.125 126.140625 134.125 127.914063 134.125 129.140625 133.253906 129.140625 131.535156 129.140625 129.785156 127.769531 129.261719 126.453125 129.160156L125.929688 129.128906 126.230469 127.855469 128.851563 127.855469M133.292969 131.023438C133.292969 128.589844 132.121094 126.851563 130.324219 125.9375L130.144531 126.226563C131.773438 127.308594 132.378906 128.804688 132.378906 131.023438 132.378906 133.265625 131.773438 134.773438 130.144531 135.84375L130.324219 136.15625C132.121094 135.226563 133.292969 133.476563 133.292969 131.023438" />
</svg>